<?xml version="1.0" standalone="no"?>
<!DOCTYPE svg PUBLIC "-//W3C//DTD SVG 20010904//EN"
 "http://www.w3.org/TR/2001/REC-SVG-20010904/DTD/svg10.dtd">
<svg version="1.0" xmlns="http://www.w3.org/2000/svg"
 width="400.000000pt" height="357.000000pt" viewBox="0 0 400.000000 357.000000"
 preserveAspectRatio="xMidYMid meet">

<g transform="translate(0.000000,357.000000) scale(0.100000,-0.100000)"
fill="#000000" stroke="none">
<path d="M0 1785 l0 -1785 2000 0 2000 0 0 1785 0 1785 -2000 0 -2000 0 0
-1785z m2832 1738 l1117 -6 0 -1740 0 -1740 -982 6 c-540 4 -1417 7 -1949 7
l-967 0 0 1740 0 1740 832 0 c458 0 1335 -3 1949 -7z"/>
<path d="M993 3320 c-127 -27 -247 -128 -170 -144 27 -6 1144 -15 2187 -18
l755 -2 3 27 3 27 -213 1 c-117 1 -629 5 -1138 8 l-925 7 -150 48 c-159 51
-264 65 -352 46z"/>
<path d="M705 3155 c-5 -2 -53 -13 -105 -25 -101 -23 -190 -57 -190 -71 0 -12
56 -11 230 2 192 14 193 14 184 42 -12 39 -35 57 -73 56 -20 0 -40 -2 -46 -4z"/>
<path d="M2700 3093 c-80 -12 -273 -86 -433 -165 -214 -106 -337 -158 -429
-183 -127 -34 -320 -4 -473 72 -27 14 -93 56 -145 93 -145 103 -195 128 -287
144 -26 4 -35 1 -43 -15 -15 -27 -1 -43 52 -58 59 -17 157 -72 253 -141 153
-111 307 -170 461 -177 169 -9 284 25 575 168 148 73 294 135 419 176 25 8 83
18 129 22 91 7 118 23 92 55 -13 16 -102 20 -171 9z"/>
<path d="M700 2176 l0 -296 35 0 35 0 1 78 c1 42 4 135 8 205 l6 128 115 -118
c63 -65 157 -162 209 -216 51 -53 95 -97 97 -97 2 0 4 133 4 295 l0 295 -34 0
-34 0 -7 -112 c-4 -62 -5 -155 -3 -206 1 -50 0 -91 -3 -90 -3 2 -97 98 -209
213 -112 116 -207 212 -212 213 -4 2 -8 -129 -8 -292z"/>
<path d="M1440 2311 c-110 -35 -170 -114 -170 -221 0 -130 94 -224 225 -223
234 0 312 305 106 416 -53 29 -121 41 -161 28z m129 -66 c68 -35 108 -118 91
-189 -34 -150 -223 -186 -310 -59 -53 77 -21 205 61 246 42 21 121 22 158 2z"/>
<path d="M1775 2299 c-3 -8 -4 -107 -3 -219 l3 -205 25 0 c25 0 25 2 28 88 1
48 7 87 12 87 5 0 37 -40 72 -90 53 -77 66 -90 90 -90 15 0 28 4 28 9 0 5 -27
46 -60 92 l-60 84 28 13 c85 42 93 175 11 217 -42 22 -167 32 -174 14z m153
-65 c16 -11 22 -25 22 -53 0 -47 -21 -68 -77 -77 l-41 -6 -4 53 c-6 88 -1 99
41 99 20 0 47 -7 59 -16z"/>
<path d="M2085 2235 c-3 -38 -5 -135 -3 -215 l3 -145 25 0 c25 0 25 1 28 103
l3 102 69 0 c68 0 70 1 70 25 0 22 -4 25 -39 25 -21 0 -53 3 -70 6 -30 6 -31
8 -31 60 l0 53 73 3 c65 3 72 5 75 25 3 21 -1 22 -97 25 l-100 3 -6 -70z"/>
<path d="M2454 2291 c-85 -39 -143 -145 -128 -235 30 -186 250 -260 381 -130
116 117 79 305 -74 369 -48 20 -130 18 -179 -4z m148 -41 c44 -13 103 -75 113
-120 4 -17 4 -53 0 -78 -13 -90 -119 -159 -205 -133 -114 34 -164 157 -105
258 42 70 111 96 197 73z"/>
<path d="M2830 2085 l0 -215 91 0 c88 0 90 1 87 23 -3 20 -9 22 -65 25 l-63 3
0 189 0 190 -25 0 -25 0 0 -215z"/>
<path d="M3049 2203 c0 -54 -2 -141 -4 -193 -4 -121 0 -140 31 -140 23 0 23 3
26 92 2 52 7 93 13 95 6 2 46 -40 89 -92 72 -87 81 -95 113 -95 27 0 33 3 26
13 -5 6 -46 57 -91 113 -45 55 -82 105 -82 110 0 5 38 47 85 94 47 47 85 88
85 92 0 5 -12 8 -28 8 -21 0 -46 -19 -112 -85 -47 -47 -88 -85 -92 -85 -5 0
-8 38 -8 85 0 84 0 85 -25 85 -25 0 -25 0 -26 -97z"/>
<path d="M780 1700 c0 -18 223 -570 230 -570 4 0 40 84 80 188 40 103 76 191
80 195 4 4 37 -70 74 -165 37 -95 73 -186 80 -203 l14 -30 11 29 c6 16 59 145
116 287 58 142 105 263 105 269 0 7 -15 10 -36 8 l-37 -3 -74 -185 c-41 -102
-78 -189 -82 -193 -5 -5 -43 80 -86 188 -42 108 -81 193 -85 188 -4 -4 -40
-92 -81 -195 -40 -104 -75 -188 -79 -188 -4 0 -41 87 -83 193 l-75 192 -36 3
c-21 2 -36 -1 -36 -8z"/>
<path d="M1607 1426 c-3 -78 -4 -152 -2 -166 2 -14 4 -49 4 -78 1 -49 3 -53
24 -50 l22 3 0 215 c0 211 0 215 -21 216 -20 1 -21 -5 -27 -140z"/>
<path d="M1747 1563 c-4 -3 -7 -103 -7 -220 l0 -214 93 3 c84 3 92 5 92 23 0
17 -8 21 -57 25 -31 3 -59 7 -61 10 -3 3 -6 84 -8 180 -1 96 -6 181 -12 188
-10 13 -30 16 -40 5z"/>
<path d="M1973 1564 c-10 -4 -13 -58 -13 -221 l0 -216 88 5 c164 10 242 82
242 227 0 94 -76 181 -168 195 -76 11 -137 15 -149 10z m173 -75 c64 -30 87
-74 82 -154 -3 -51 -9 -70 -28 -91 -37 -38 -74 -54 -133 -57 l-52 -2 -3 163
-2 162 47 0 c27 0 65 -9 89 -21z"/>
<path d="M2340 1345 l0 -216 93 3 c84 3 92 5 92 23 0 18 -8 20 -62 23 l-63 3
0 189 0 190 -30 0 -30 0 0 -215z"/>
<path d="M2560 1345 l0 -215 24 0 c24 0 24 1 28 111 1 61 1 157 0 215 -4 102
-4 104 -28 104 l-24 0 0 -215z"/>
<path d="M2694 1547 c-2 -7 -3 -102 -2 -212 l3 -200 28 -3 27 -3 0 105 0 105
73 3 c66 3 72 5 75 26 3 21 0 22 -56 22 -88 0 -92 3 -92 66 l0 54 74 0 c65 0
74 2 79 19 3 11 2 22 -1 25 -3 3 -50 6 -104 6 -71 0 -100 -4 -104 -13z"/>
<path d="M2966 1523 c-8 -50 -8 -220 0 -316 l7 -77 114 0 c113 0 114 0 111 23
-3 21 -8 22 -90 25 l-88 3 0 79 0 80 85 0 c84 0 85 0 85 25 0 25 -1 25 -85 25
l-86 0 3 58 3 57 85 5 c77 5 85 7 85 25 0 19 -8 20 -111 23 l-111 3 -7 -38z"/>
<path d="M1200 935 l0 -35 64 0 64 0 7 -212 c4 -117 6 -231 4 -253 -4 -40 -4
-40 33 -43 l38 -3 2 253 3 253 65 5 c64 5 65 5 65 35 l0 30 -172 3 -173 2 0
-35z"/>
<path d="M2354 816 c-69 -31 -94 -107 -53 -161 12 -15 51 -41 87 -58 90 -43
109 -89 59 -144 -38 -43 -109 -21 -130 39 -4 11 -13 15 -27 11 -29 -8 -33 -19
-16 -52 26 -50 62 -71 121 -71 86 0 142 62 132 147 -6 56 -17 68 -98 108 -82
42 -102 60 -93 89 13 45 72 61 118 31 26 -18 58 -10 54 13 -9 43 -100 72 -154
48z"/>
<path d="M1590 606 l0 -216 25 0 c24 0 25 2 26 75 1 41 2 79 3 84 3 27 20 13
80 -69 58 -79 69 -90 96 -90 16 0 30 2 30 5 0 3 -27 42 -61 87 l-61 83 23 15
c13 8 34 26 46 39 42 44 25 146 -31 181 -11 7 -56 16 -98 18 l-78 5 0 -217z
m129 153 c35 -12 51 -35 51 -73 0 -41 -33 -66 -85 -66 l-45 0 0 68 c0 38 3 72
7 75 9 10 36 8 72 -4z"/>
<path d="M1894 806 c-3 -8 -4 -84 -2 -168 4 -172 12 -201 71 -237 44 -27 119
-28 167 -2 19 10 45 36 57 57 22 37 23 49 20 199 -2 160 -2 160 -25 160 -23 0
-23 -2 -28 -140 -2 -77 -7 -154 -10 -172 -12 -80 -136 -101 -176 -30 -8 14
-15 79 -18 182 -5 157 -5 160 -28 163 -13 2 -24 -3 -28 -12z"/>
<path d="M2552 793 c3 -26 7 -28 50 -31 l48 -3 2 -187 c3 -182 4 -187 24 -190
28 -4 34 31 34 225 l0 152 48 3 c39 2 48 7 50 24 4 27 -27 34 -160 34 l-99 0
3 -27z"/>
</g>
</svg>
